<svg width="60" height="60" viewBox="0 0 60 60" fill="none" xmlns="http://www.w3.org/2000/svg">
<circle cx="30" cy="30" r="28" fill="#D9D9D9" stroke="#120415" stroke-width="4"/>
<path d="M32.2754 35.4668V37H24.7461V35.4668H32.2754ZM25.127 22.7812V37H23.2422V22.7812H25.127ZM31.2793 28.8945V30.4277H24.7461V28.8945H31.2793ZM32.1777 22.7812V24.3242H24.7461V22.7812H32.1777ZM36.6309 22.7812V37H34.7461V22.7812H36.6309Z" fill="#120415"/>
<path d="M32.2754 35.4668H32.7754V34.9668H32.2754V35.4668ZM32.2754 37V37.5H32.7754V37H32.2754ZM24.7461 37H24.2461V37.5H24.7461V37ZM24.7461 35.4668V34.9668H24.2461V35.4668H24.7461ZM25.127 22.7812H25.627V22.2812H25.127V22.7812ZM25.127 37V37.5H25.627V37H25.127ZM23.2422 37H22.7422V37.5H23.2422V37ZM23.2422 22.7812V22.2812H22.7422V22.7812H23.2422ZM31.2793 28.8945H31.7793V28.3945H31.2793V28.8945ZM31.2793 30.4277V30.9277H31.7793V30.4277H31.2793ZM24.7461 30.4277H24.2461V30.9277H24.7461V30.4277ZM24.7461 28.8945V28.3945H24.2461V28.8945H24.7461ZM32.1777 22.7812H32.6777V22.2812H32.1777V22.7812ZM32.1777 24.3242V24.8242H32.6777V24.3242H32.1777ZM24.7461 24.3242H24.2461V24.8242H24.7461V24.3242ZM24.7461 22.7812V22.2812H24.2461V22.7812H24.7461ZM31.7754 35.4668V37H32.7754V35.4668H31.7754ZM32.2754 36.5H24.7461V37.5H32.2754V36.5ZM25.2461 37V35.4668H24.2461V37H25.2461ZM24.7461 35.9668H32.2754V34.9668H24.7461V35.9668ZM24.627 22.7812V37H25.627V22.7812H24.627ZM25.127 36.5H23.2422V37.5H25.127V36.5ZM23.7422 37V22.7812H22.7422V37H23.7422ZM23.2422 23.2812H25.127V22.2812H23.2422V23.2812ZM30.7793 28.8945V30.4277H31.7793V28.8945H30.7793ZM31.2793 29.9277H24.7461V30.9277H31.2793V29.9277ZM25.2461 30.4277V28.8945H24.2461V30.4277H25.2461ZM24.7461 29.3945H31.2793V28.3945H24.7461V29.3945ZM31.6777 22.7812V24.3242H32.6777V22.7812H31.6777ZM32.1777 23.8242H24.7461V24.8242H32.1777V23.8242ZM25.2461 24.3242V22.7812H24.2461V24.3242H25.2461ZM24.7461 23.2812H32.1777V22.2812H24.7461V23.2812ZM36.6309 22.7812H37.1309V22.2812H36.6309V22.7812ZM36.6309 37V37.5H37.1309V37H36.6309ZM34.7461 37H34.2461V37.5H34.7461V37ZM34.7461 22.7812V22.2812H34.2461V22.7812H34.7461ZM36.1309 22.7812V37H37.1309V22.7812H36.1309ZM36.6309 36.5H34.7461V37.5H36.6309V36.5ZM35.2461 37V22.7812H34.2461V37H35.2461ZM34.7461 23.2812H36.6309V22.2812H34.7461V23.2812Z" fill="#120415"/>
</svg>
